<svg width="1200" height="1200" viewBox="0 0 1200 1200" fill="none" xmlns="http://www.w3.org/2000/svg">
<mask id="mask0_409_3640" style="mask-type:alpha" maskUnits="userSpaceOnUse" x="0" y="0" width="1197" height="1197">
<circle cx="598.033" cy="598.033" r="598.033" fill="#D9D9D9"/>
</mask>
<g mask="url(#mask0_409_3640)">
<rect width="1200" height="1200" fill="white"/>
<path d="M1130.2 330.588C1368.24 789.02 949.804 1306.27 450.981 1180C227.059 1124.31 47.0589 930.196 9.80403 702.353C-32.5489 475.686 69.804 232.157 261.177 103.922C523.53 -76.4704 887.059 -16.4704 1074.9 241.569C1076.08 242.745 1075.69 244.706 1074.12 245.883C1072.94 247.059 1070.98 246.667 1069.8 245.098C1043.92 211.765 1014.51 181.569 982.353 154.51C929.412 109.412 867.451 74.1179 801.961 50.1963C468.628 -70.588 102.745 130.196 29.804 478.824C-52.5489 869.412 279.608 1229.02 675.686 1175.29C981.177 1136.86 1208.24 854.902 1183.14 548.235C1177.65 474.118 1158.04 400.785 1125.49 333.334C1124.71 332.157 1125.49 330.588 1126.67 329.804C1127.84 329.02 1129.41 329.412 1130.2 330.588Z" fill="black"/>
<path d="M925.883 1091.76C923.138 1093.73 920.001 1095.69 917.256 1097.65C914.118 1099.61 911.373 1101.57 908.236 1103.14C905.491 1104.71 903.138 1106.27 900.393 1107.84C900.001 1108.24 899.609 1108.24 899.216 1108.63C890.197 1114.12 880.785 1119.22 871.373 1123.92C868.628 1125.49 865.491 1127.06 862.746 1128.24C862.746 1128.24 862.354 1128.63 861.962 1128.63C858.824 1130.2 855.687 1131.76 852.55 1133.33C846.275 1136.47 839.609 1139.22 833.334 1141.96C830.197 1143.53 826.667 1144.71 823.53 1145.88C820.393 1147.06 816.864 1148.63 813.726 1149.8C810.589 1150.98 807.06 1152.55 803.922 1153.73C803.922 1153.73 803.922 1153.73 803.53 1153.73C800.393 1154.9 796.864 1156.08 793.726 1157.25C786.667 1159.61 779.216 1161.96 772.158 1164.31C769.805 1165.1 767.06 1165.88 764.707 1166.67C757.256 1169.02 749.805 1170.98 742.354 1172.55C739.609 1173.33 736.864 1173.73 733.726 1174.51C726.667 1176.08 719.216 1177.65 712.158 1179.22C710.589 1179.61 709.413 1179.61 707.844 1180C705.491 1180.39 702.746 1180.78 700.393 1181.18C696.864 1181.57 693.726 1182.35 690.197 1182.74C688.628 1183.14 687.06 1183.14 685.491 1183.53C683.53 1183.92 681.177 1184.31 678.824 1184.31C672.55 1185.1 665.883 1185.88 659.609 1186.67C657.648 1187.06 655.295 1187.06 653.334 1187.45H652.942C650.197 1187.84 647.452 1187.84 644.707 1188.24C641.962 1188.63 639.217 1188.63 636.471 1188.63C634.903 1188.63 632.942 1189.02 631.373 1189.02C628.236 1189.02 625.491 1189.41 622.746 1189.41C618.824 1189.41 615.295 1189.8 611.373 1189.8C607.452 1189.8 603.922 1189.8 600.001 1189.8C597.256 1189.8 594.511 1189.8 591.766 1189.8C426.275 1187.45 277.648 1117.25 171.373 1005.88C171.373 1005.88 171.373 1005.49 170.981 1005.49C159.216 994.902 169.413 938.431 216.864 902.745C276.471 857.647 419.217 829.412 419.217 829.412C419.217 829.412 474.511 820.392 679.609 863.137C799.609 888.235 890.981 924.706 941.962 1023.53C952.55 1043.92 963.138 1075.29 925.883 1091.76Z" fill="white"/>
<path d="M680.785 858.823C756.079 874.118 836.471 890.588 898.432 940.392C919.216 957.255 932.942 981.961 944.315 1005.88C949.805 1017.65 955.295 1029.8 959.609 1042.75C961.962 1051.37 965.491 1061.18 963.53 1071.37C963.138 1074.12 960.785 1077.65 958.824 1079.61C949.805 1088.63 940.001 1094.12 930.197 1101.18C872.55 1141.18 806.275 1169.41 737.648 1184.31C584.707 1217.65 419.216 1191.76 284.707 1111.37C240.001 1084.31 198.824 1051.37 163.53 1012.55C159.609 1007.84 159.609 1000 159.609 994.902C160.001 983.137 163.138 971.765 167.06 961.176C176.471 936.863 188.628 912.549 209.413 895.686C224.315 885.49 240.393 876.863 256.864 869.804C308.628 847.843 363.138 832.549 419.216 826.274C423.922 825.882 424.707 832.549 420.001 833.333C366.275 844.314 312.942 860.784 263.138 883.137C245.099 892.157 225.883 900 211.373 914.118C197.648 929.02 187.844 947.451 180.001 966.274C174.903 977.647 171.373 995.686 172.942 1004.71C197.648 1034.12 226.667 1060 258.04 1082.35C429.805 1202.35 690.589 1210.2 873.334 1110.2C889.805 1101.18 905.883 1090.98 921.177 1080.39C928.628 1075.29 936.471 1070.98 942.354 1065.1C942.746 1064.71 942.354 1065.1 942.354 1065.49C942.354 1065.88 941.962 1066.27 941.962 1066.27C942.354 1061.57 940.785 1055.29 938.824 1049.02C931.765 1026.27 920.393 1002.35 908.236 981.569C889.02 950.588 856.471 930.98 823.53 915.294C800.785 904.706 776.864 896.471 752.55 888.627C728.236 880.784 703.53 874.118 678.824 868.235C672.55 866.667 674.511 857.647 680.785 858.823Z" fill="black"/>
<path d="M831.377 902.747C831.377 902.747 784.318 876.08 708.631 856.864C708.631 856.864 654.514 834.511 576.082 823.531C473.337 809.021 430.984 818.825 430.984 818.825C430.984 818.825 340.396 829.021 272.553 865.492C272.553 865.492 290.592 1017.65 428.631 1077.26C566.278 1136.86 758.043 1107.45 803.533 1069.02C848.631 1030.59 842.357 915.688 831.377 902.747Z" fill="black" stroke="black" stroke-width="5.1257" stroke-miterlimit="10" stroke-linecap="round" stroke-linejoin="round"/>
<path d="M240.787 885.492C240.787 885.492 214.512 896.08 185.493 925.884C152.944 959.218 126.669 1043.92 104.709 1107.45C63.1399 1227.06 90.9831 1383.14 90.9831 1383.14H1008.63C1008.63 1383.14 1016.87 1184.32 965.101 1063.92C958.434 1048.63 947.454 1009.81 934.12 988.237C912.552 952.943 888.238 932.159 869.022 923.139C869.022 923.139 877.65 1079.61 704.316 1088.24C530.983 1096.86 321.571 1041.96 316.473 1009.81C311.375 976.865 240.787 885.492 240.787 885.492Z" fill="white"/>
<path d="M238.434 894.904C240.003 895.688 243.532 895.296 244.709 894.512H244.316L243.532 894.904C223.532 901.963 205.493 914.119 189.807 928.629C173.728 943.923 162.748 964.315 153.336 984.316C143.532 1004.71 135.689 1026.28 128.238 1047.84C120.787 1069.41 113.336 1090.98 106.277 1112.55C80.0027 1199.22 83.5321 1293.34 101.571 1381.18L91.7674 1372.94H1009.41L999.218 1382.75C1007.45 1281.96 1003.14 1171.77 968.63 1076.08C956.081 1047.84 948.63 1016.86 932.16 990.59C915.689 966.276 893.728 942.355 865.493 932.551L879.611 922.747C880.787 997.649 838.826 1066.28 765.493 1088.24C732.16 1099.22 696.473 1099.61 661.964 1099.61C627.846 1099.61 593.728 1097.26 559.611 1093.34C515.689 1089.02 310.591 1058.04 306.277 1009.02C296.865 981.178 278.826 956.865 262.748 932.551C253.728 919.61 243.924 905.884 234.12 893.335L233.728 892.551L233.336 892.159C232.944 891.766 234.12 893.335 234.905 893.727C236.081 894.119 237.258 894.904 238.434 894.904ZM243.532 875.688C247.062 876.472 249.022 879.61 250.983 881.963C270.983 908.629 290.199 935.296 307.062 963.923C314.905 977.649 323.532 992.159 326.669 1007.84C361.179 1043.14 509.414 1067.45 561.964 1072.94C595.297 1076.47 628.63 1078.83 661.964 1078.83C694.905 1078.83 728.238 1078.43 759.218 1068.63C823.924 1049.41 860.003 989.414 859.218 923.531L862.356 916.865C864.316 912.943 869.414 911.374 873.336 913.727C893.336 926.276 907.454 942.355 920.395 959.61C932.944 976.865 943.14 995.688 950.199 1015.69C957.258 1035.3 963.14 1055.3 971.375 1074.51C978.826 1094.12 984.709 1114.12 989.415 1134.51C999.218 1175.3 1005.1 1216.47 1009.81 1258.04C1014.12 1299.61 1016.87 1341.18 1018.43 1383.53C1018.43 1389.02 1013.73 1393.34 1008.63 1393.34H90.9831C85.8851 1393.34 81.9635 1389.81 81.1792 1385.1C72.9439 1293.73 72.5517 1199.61 101.179 1111.77C120.395 1058.04 136.865 1002.75 162.748 951.766C178.434 921.178 205.493 896.08 234.905 878.041L236.081 877.257L236.473 876.865C238.042 875.296 241.571 874.904 243.532 875.688Z" fill="black"/>
<path d="M908.237 1389.81C661.962 1503.53 256.472 1400.79 256.472 1400.79C256.472 1400.79 248.237 1300.79 278.041 1120.79C279.217 1112.55 280.394 1104.32 281.178 1096.87C289.806 1015.3 260.002 927.453 238.825 892.159C238.825 883.14 248.237 876.865 258.825 867.846C263.139 864.316 269.021 863.924 272.159 866.277C277.649 874.12 282.747 881.963 287.06 890.199C330.982 971.375 427.06 1046.28 518.825 1055.3C643.923 1067.85 696.08 1065.88 758.433 1052.16C818.433 1038.83 848.237 965.101 831.374 906.277C830.982 905.493 830.982 904.316 830.59 903.14C841.178 902.355 865.884 922.748 874.119 952.944C882.747 990.199 886.668 1070.59 891.766 1112.55C909.021 1249.81 908.237 1389.81 908.237 1389.81Z" fill="black" stroke="black" stroke-width="5.1257" stroke-miterlimit="10" stroke-linecap="round" stroke-linejoin="round"/>
<path d="M342.354 860.394C385.099 926.668 434.118 988.629 493.334 1040.79C511.373 1056.86 530.981 1071.77 550.981 1084.71C554.903 1087.06 556.079 1088.63 559.609 1089.41C564.707 1090.59 570.589 1089.41 574.903 1085.49L584.707 1074.9C601.962 1056.86 620.001 1038.82 636.079 1020C642.746 1012.55 649.02 1004.71 651.766 994.511C653.334 991.766 656.864 991.374 659.609 992.943C680.393 1011.37 701.962 1029.02 723.138 1047.06L738.824 1060.39L746.667 1067.06L747.452 1067.84L747.844 1068.24C751.766 1071.77 758.824 1070.98 761.962 1066.67C764.315 1063.14 765.491 1054.9 766.667 1050.2C776.471 996.864 769.805 941.57 755.295 889.805C754.903 889.021 755.687 888.237 756.079 888.237C756.864 888.237 757.648 888.237 757.648 889.021C767.844 914.511 775.687 941.57 780.001 969.021C784.315 996.472 784.707 1024.71 780.785 1052.94C779.217 1061.18 779.609 1067.84 774.511 1075.69C768.628 1083.92 758.04 1088.24 748.628 1085.88C740.785 1084.71 734.118 1077.26 728.628 1072.16C703.53 1049.02 678.432 1025.1 653.334 1001.96L661.962 1001.18C644.315 1012.55 636.471 1031.77 625.099 1048.24C615.295 1063.92 605.491 1080.79 595.687 1096.47C583.922 1116.86 555.295 1121.18 537.256 1106.67C522.746 1096.86 507.452 1085.88 494.118 1074.51C457.648 1043.14 425.099 1006.67 397.648 967.452C374.511 934.119 354.118 899.609 338.432 862.354C338.04 861.178 338.432 859.609 339.609 859.217C340.393 858.825 341.962 859.609 342.354 860.394Z" fill="white"/>
<path d="M669.805 1335.69C674.903 1280 672.55 1223.14 669.021 1167.45C665.099 1111.38 660.393 1054.9 650.981 999.219C649.805 991.768 661.178 989.415 662.746 997.258C672.55 1109.02 687.452 1224.71 681.57 1336.87C681.178 1344.32 669.413 1343.53 669.805 1335.69Z" fill="white"/>
<path d="M718.434 1127.06C726.231 1127.06 732.552 1120.74 732.552 1112.94C732.552 1105.15 726.231 1098.83 718.434 1098.83C710.637 1098.83 704.316 1105.15 704.316 1112.94C704.316 1120.74 710.637 1127.06 718.434 1127.06Z" fill="white"/>
<path d="M724.707 1197.65C732.504 1197.65 738.825 1191.33 738.825 1183.53C738.825 1175.73 732.504 1169.41 724.707 1169.41C716.91 1169.41 710.589 1175.73 710.589 1183.53C710.589 1191.33 716.91 1197.65 724.707 1197.65Z" fill="white"/>
<path d="M717.644 963.137C709.409 1003.53 656.075 1027.84 566.271 991.372C472.938 953.725 432.546 863.921 422.35 837.255C477.644 733.725 439.213 661.961 439.213 661.961C566.664 650.98 678.036 800 678.036 800L695.291 873.725C696.86 880 699.997 885.49 704.703 889.412C712.938 903.921 722.742 937.255 717.644 963.137Z" fill="white"/>
<path d="M420.391 838.431C427.842 827.059 432.548 813.726 435.685 800.784C441.567 773.726 443.528 746.275 443.92 718.824V708.627C442.744 698.431 439.214 687.843 435.293 678.431C430.195 665.882 448.626 658.039 454.508 670.588C455.293 672.157 455.293 674.902 455.293 676.471C456.469 729.804 458.822 798.431 425.097 842.745C422.744 845.098 418.038 841.569 420.391 838.431Z" fill="black"/>
<path d="M682.35 799.216C688.233 802.745 690.194 807.451 690.978 812.157C693.331 821.569 692.546 831.765 694.899 841.569C696.86 850.981 702.743 860 704.311 869.804C706.272 880 712.154 901.569 714.507 912.157C715.292 914.51 713.723 917.255 710.978 917.647C709.409 918.04 708.233 917.647 707.056 916.863C701.958 912.549 699.605 908.236 696.468 902.745C691.37 893.334 687.841 884.706 684.703 874.118C681.958 864.706 683.135 854.51 680.782 844.706C678.821 835.294 673.331 826.275 671.37 816.471C670.194 811.765 669.801 806.667 673.331 800.785C675.684 798.432 679.605 797.647 682.35 799.216Z" fill="black"/>
<path d="M710.587 902.745C635.685 898.823 574.508 875.294 514.901 769.02C565.097 813.333 624.312 830.196 686.665 838.039L694.901 874.117C696.469 880.392 705.881 898.823 710.587 902.745Z" fill="black"/>
<path d="M707.451 888.235C720.785 913.333 728.628 944.706 720.392 972.549C714.118 992.157 696.079 1006.67 676.471 1012.16C630.981 1024.31 578.432 1005.1 538.039 983.529C488.236 955.686 451.373 909.019 427.843 858.039C426.275 854.117 431.765 850.98 434.118 854.902C442.353 871.372 451.765 887.451 462.353 901.961C472.941 916.863 485.098 930.588 498.824 942.745C538.824 978.823 592.941 1001.18 647.059 1001.18C702.745 999.608 723.922 970.196 710.981 916.078C709.02 907.451 705.883 898.431 701.569 890.98C699.216 887.843 705.098 884.314 707.451 888.235Z" fill="black"/>
<path d="M859.214 417.255C866.273 450.196 860.783 472.157 857.645 563.137C854.508 652.549 828.626 778.824 796.861 810.588C772.547 834.51 694.508 853.334 625.096 835.686C589.802 826.667 559.998 806.275 535.685 791.765C505.096 773.333 478.43 716.471 456.469 680C439.214 651.373 440.783 685.883 418.43 661.177C387.449 627.451 350.194 559.608 368.626 439.608C398.43 245.098 552.547 222.353 666.665 243.922C781.567 265.49 840.391 330.588 859.214 417.255Z" fill="white"/>
<path d="M438.039 695.686C429.02 680.784 417.255 667.451 406.667 653.333C390.981 631.765 379.216 607.059 371.373 581.569C337.255 472.549 358.039 329.804 461.177 265.49C554.902 205.882 736.863 227.451 812.941 309.02C841.569 338.431 860 376.863 867.843 416.863C868.236 419.216 869.412 423.529 869.804 425.882C870.196 427.843 871.373 430.196 870.981 432.549C870.196 441.177 868.628 449.804 867.843 458.431C861.961 510.588 863.53 563.922 856.863 616.078C850.981 670.98 843.138 725.882 826.667 778.824C821.569 794.902 811.765 809.412 798.824 820C769.804 844.314 731.765 852.549 695.294 854.118C622.353 857.647 548.236 831.765 505.883 770.196C504.314 767.843 507.451 765.098 509.412 767.451C544.706 805.49 592.549 829.804 643.53 835.294C700 841.961 785.098 836.863 809.804 776.471C838.432 690.98 853.334 600.392 854.902 510.588C854.902 488.627 853.726 466.667 853.726 444.314C853.726 441.569 854.118 435.294 854.118 432.549C854.118 432.549 854.118 432.157 854.118 432.549C854.118 432.941 854.118 432.941 854.118 432.549C850.981 424.706 849.804 416.078 847.451 408.235C838.824 375.686 823.138 344.706 800.785 320C726.667 236.863 561.569 216.078 469.02 278.431C395.686 327.059 376.079 420.392 370.981 502.745C366.667 564.314 384.706 624.706 431.373 667.059L449.804 686.275C457.647 694.902 444.314 705.098 438.039 695.686Z" fill="black"/>
<path d="M484.315 570.98C484.315 570.98 472.158 512.157 414.904 519.215C365.492 525.49 348.237 643.921 460.394 676.863" fill="white"/>
<path d="M455.293 625.491C446.273 620.393 439.999 611.765 439.606 601.177C439.999 593.334 441.175 584.314 439.214 576.471C438.038 569.02 430.195 567.059 424.312 567.451C418.038 568.628 414.116 576.471 412.94 582.746C412.94 583.138 412.548 584.314 412.548 584.706C412.155 586.667 409.018 586.667 408.234 584.706C403.136 569.412 414.508 552.549 430.979 554.51C454.116 556.079 457.253 580.393 452.94 598.824C450.587 606.667 453.724 613.726 458.038 620.393L458.822 621.569C460.783 623.922 457.646 627.059 455.293 625.491Z" fill="black"/>
<path d="M769.022 529.412C774.904 557.255 785.885 583.137 799.61 607.451C811.767 637.255 780.394 665.49 752.551 664.313C749.414 664.313 749.022 660 751.767 659.215C769.414 653.725 785.492 641.961 788.237 623.921C789.414 618.431 787.845 613.725 785.1 609.019C772.159 584.706 764.316 556.862 766.277 529.412C766.277 527.451 769.022 527.451 769.022 529.412Z" fill="black"/>
<path d="M482.353 571.373C473.334 548.235 453.726 526.275 427.451 526.667C425.098 526.275 421.177 527.059 418.824 527.059C412.157 527.451 406.667 529.804 401.569 534.51C376.471 559.608 380.785 603.922 401.177 631.765C408.236 641.569 417.255 650.196 427.451 657.255C437.647 664.314 449.02 669.804 461.177 674.51C463.922 675.294 462.745 679.608 460 679.216C433.726 673.725 408.628 660.784 391.373 639.216C364.706 607.059 359.216 553.333 390.981 521.961C398.039 515.686 407.843 510.98 417.647 510.98C420.785 510.98 425.49 510.196 428.628 510.98C445.098 511.765 460.785 520 470.981 532.941C480 543.922 485.098 557.255 486.667 570.588C486.667 572.941 483.138 573.725 482.353 571.373Z" fill="black"/>
<path d="M739.216 703.529C714.118 727.451 666.667 708.235 654.118 679.216C652.549 675.686 656.471 672.549 659.608 674.117C666.275 677.647 672.157 681.176 678.432 683.921C696.471 692.157 715.294 698.823 735.294 696.863C739.216 696.078 741.961 700.784 739.216 703.529Z" fill="black"/>
<path d="M622.746 569.412C613.334 569.02 606.275 561.177 607.06 551.765L607.452 540.785C607.844 531.373 615.687 524.314 625.099 525.099C634.511 525.491 641.57 533.334 640.785 542.746L640.393 553.726C640.001 562.746 632.158 569.804 622.746 569.412Z" fill="black"/>
<path d="M787.843 575.295C779.215 574.903 772.549 567.452 772.941 558.824L773.333 548.628C773.725 540.001 781.176 533.334 789.803 533.726C798.431 534.119 805.098 541.57 804.705 550.197L804.313 560.393C803.921 569.02 796.47 575.687 787.843 575.295Z" fill="black"/>
<path d="M658.04 548.236C645.099 539.608 630.981 533.726 615.295 536.863C610.197 537.647 605.099 539.216 601.962 542.746C600.785 544.314 598.04 543.922 598.04 541.569C598.432 533.726 605.099 528.628 611.373 525.491C623.53 519.216 640.393 520.393 651.373 528.628C655.295 530.981 668.628 545.491 661.569 548.628C660.001 549.412 659.217 549.02 658.04 548.236Z" fill="black"/>
<path d="M770.197 550.197C770.197 533.726 790.589 527.844 803.138 533.726C810.197 536.863 815.295 543.138 817.256 550.589C818.04 552.942 814.511 554.903 812.942 552.942C806.275 545.099 794.903 541.177 785.883 545.883C783.138 547.452 782.746 548.628 781.962 550.197C781.962 558.04 770.589 557.648 770.197 550.197Z" fill="black"/>
<path d="M676.864 483.53C685.099 486.275 693.334 478.824 691.766 469.804C690.981 465.098 689.02 460.392 685.099 456.863C673.334 446.275 624.707 436.863 595.295 450.589C569.413 463.138 639.217 470.981 676.864 483.53Z" fill="black"/>
<path d="M794.12 489.804C787.453 492.157 780.394 485.098 781.571 476.863C781.963 472.549 783.532 468.236 786.669 465.098C796.081 455.687 828.237 448.236 848.63 462.745C866.277 474.902 824.708 478.432 794.12 489.804Z" fill="black"/>
<path d="M908.26 763.531C862.769 647.452 868.652 610.982 879.632 513.334C901.593 321.178 832.181 274.511 795.711 256.08C640.417 177.256 462.377 215.687 395.319 323.923C353.358 391.374 351.789 445.491 328.26 523.138C287.868 656.08 190.613 714.903 220.809 850.982C262.377 985.099 528.26 1044.31 523.162 904.707C520.024 820.393 456.887 809.021 455.711 692.55C455.711 684.707 456.103 677.256 456.887 670.197C348.652 636.08 365.907 520.001 414.926 513.727C449.044 509.413 467.083 528.629 476.103 544.707C476.887 547.06 478.064 549.021 479.24 551.374C487.083 564.707 579.632 539.609 650.22 496.08C691.397 470.589 755.711 426.668 773.358 378.433C774.142 376.472 786.691 436.864 845.515 515.295C842.769 561.962 854.534 678.433 794.926 774.511C751.789 844.707 697.671 850.982 697.671 850.982C697.671 897.648 780.417 895.295 814.926 903.138C858.064 912.55 900.809 938.433 900.809 938.433C900.809 938.433 950.22 870.589 908.26 763.531Z" fill="black"/>
<path d="M791.766 620C791.766 620 796.472 646.667 827.452 660C835.296 663.138 843.531 658.04 843.531 649.412C843.139 649.412 793.727 623.138 791.766 620Z" fill="black"/>
<path d="M549.413 620.001C549.413 620.001 563.923 652.942 607.452 660.785C650.982 669.02 690.59 637.648 709.021 585.099C709.021 585.099 694.119 633.726 634.511 642.746C575.688 652.55 549.413 620.001 549.413 620.001Z" fill="black"/>
<path d="M717.65 546.667C716.474 602.746 671.376 647.844 616.866 647.844C562.356 647.844 518.827 602.746 518.827 546.667C519.219 490.197 564.317 443.922 619.611 443.922C674.905 443.922 719.219 490.197 717.65 546.667Z" stroke="black" stroke-width="3" stroke-miterlimit="10" stroke-linecap="round" stroke-linejoin="round"/>
<path d="M771.374 533.726C777.649 483.138 810.59 443.53 849.413 443.53C891.374 443.53 923.531 489.804 921.178 546.275C918.825 602.353 883.531 647.451 842.354 647.451C827.06 647.451 813.335 641.569 801.962 630.981" stroke="black" stroke-width="3" stroke-miterlimit="10" stroke-linecap="round" stroke-linejoin="round"/>
<path d="M520.001 535.687H464.315" stroke="black" stroke-width="3" stroke-miterlimit="10" stroke-linecap="round" stroke-linejoin="round"/>
<path d="M718.041 535.687C718.041 535.687 764.707 517.648 770.59 535.687" stroke="black" stroke-width="3" stroke-miterlimit="10" stroke-linecap="round" stroke-linejoin="round"/>
</g>
</svg>
